<?xml version="1.0" encoding="utf-8"?>
<!-- Generator: Adobe Illustrator 17.0.0, SVG Export Plug-In . SVG Version: 6.00 Build 0)  -->
<!DOCTYPE svg PUBLIC "-//W3C//DTD SVG 1.1//EN" "http://www.w3.org/Graphics/SVG/1.1/DTD/svg11.dtd">
<svg version="1.1" xmlns="http://www.w3.org/2000/svg" xmlns:xlink="http://www.w3.org/1999/xlink" x="0px" y="0px"
	 width="53.707px" height="53.707px" viewBox="0 0 53.707 53.707" enable-background="new 0 0 53.707 53.707" xml:space="preserve">
<g id="Layer_1">
	<g>
		<path fill="#FFFFFF" d="M48.074,5.633C44.442,2,39.613,0,34.476,0c-5.136,0-9.965,2-13.598,5.633
			c-7.098,7.099-7.465,18.405-1.123,25.953l-3.149,3.148c-1.588-0.672-3.49-0.366-4.784,0.929L1.278,46.207
			c-1.704,1.704-1.704,4.467,0,6.171l0.051,0.052c1.704,1.703,4.467,1.703,6.171,0l10.544-10.545c1.294-1.294,1.6-3.197,0.928-4.785
			l3.146-3.146c3.459,2.913,7.784,4.508,12.358,4.508c5.137,0,9.966-2,13.598-5.633c3.633-3.632,5.633-8.461,5.633-13.598
			S51.707,9.265,48.074,5.633z M45.246,30c-2.877,2.877-6.701,4.461-10.77,4.461c-4.067,0-7.893-1.584-10.77-4.461
			c-5.938-5.938-5.938-15.601,0-21.539C26.584,5.584,30.409,4,34.476,4c4.068,0,7.893,1.584,10.77,4.461
			c2.877,2.877,4.461,6.701,4.461,10.769S48.123,27.123,45.246,30z"/>
	</g>
</g>
<g id="Layer_2">
</g>
</svg>
